<svg width="24" height="24" viewBox="0 0 24 24" fill="none" xmlns="http://www.w3.org/2000/svg">
<path fill-rule="evenodd" clip-rule="evenodd" d="M1 4C1 2.34315 2.34315 1 4 1H20C21.6569 1 23 2.34315 23 4V20C23 21.6569 21.6569 23 20 23H4C2.34315 23 1 21.6569 1 20V4ZM4 3C3.44772 3 3 3.44772 3 4V20C3 20.5523 3.44772 21 4 21H20C20.5523 21 21 20.5523 21 20V4C21 3.44772 20.5523 3 20 3H4Z" fill="#23323F"/>
<path fill-rule="evenodd" clip-rule="evenodd" d="M8.5 7C8.5 6.44772 8.94772 6 9.5 6H12.86C14.8703 6 16.5 7.62968 16.5 9.64C16.5 11.6503 14.8703 13.28 12.86 13.28H10.5V17C10.5 17.5523 10.0523 18 9.5 18C8.94772 18 8.5 17.5523 8.5 17V7ZM10.5 11.28H12.86C13.7657 11.28 14.5 10.5457 14.5 9.64C14.5 8.73425 13.7657 8 12.86 8H10.5V11.28Z" fill="#23323F"/>
</svg>
