<svg width="24" height="24" viewBox="0 0 24 24" fill="none" xmlns="http://www.w3.org/2000/svg">
<path d="M5 8C5 6.34315 6.34315 5 8 5C9.65685 5 11 6.34315 11 8C11 9.65685 9.65685 11 8 11C6.34315 11 5 9.65685 5 8ZM8 7C7.44772 7 7 7.44772 7 8C7 8.55228 7.44772 9 8 9C8.55228 9 9 8.55228 9 8C9 7.44772 8.55228 7 8 7Z" fill="#23323F"/>
<path d="M1 8C1 4.23031 4.61654 0 12 0C16.7055 0 19.7547 1.86322 21.3804 3.27282C22.589 4.32084 23 5.84905 23 7.23455V9.03161C23 10.2203 22.6994 11.5757 21.682 12.5642C20.1817 14.0217 17.1737 16 12 16C11.2962 16 10.63 15.9668 10 15.9032V21.0881C10 22.9612 8.20722 24.3135 6.40621 23.7989C5.30036 23.483 4.49728 22.527 4.37689 21.3832L3.5375 13.4084C3.53466 13.406 3.53183 13.4035 3.529 13.401C1.7366 11.8327 1 9.80204 1 8ZM12 2C5.38346 2 3 5.64469 3 8C3 9.26046 3.5134 10.7298 4.846 11.8959C6.17942 13.0626 8.42183 14 12 14C16.6034 14 19.1239 12.2609 20.2883 11.1297C20.7688 10.6629 21 9.93125 21 9.03161V7.23455C21 6.19749 20.6918 5.32292 20.0702 4.78388C18.7304 3.62219 16.1304 2 12 2ZM5.6942 14.7922L6.36591 21.1739C6.40089 21.5062 6.63427 21.7841 6.95564 21.8759C7.47903 22.0254 8.00003 21.6324 8.00003 21.0881V15.5751C7.14859 15.3758 6.3814 15.1113 5.6942 14.7922Z" fill="#23323F"/>
</svg>
