<svg width="24" height="24" viewBox="0 0 24 24" fill="none" xmlns="http://www.w3.org/2000/svg">
<path fill-rule="evenodd" clip-rule="evenodd" d="M18.1712 3.15011C18.4342 3.24557 18.6452 3.44682 18.7529 3.705C19.3559 5.15016 19.7878 6.55652 20.0423 7.89298C20.1345 8.37684 19.8606 8.85575 19.3968 9.02166C18.2566 9.42955 17.2876 9.95886 16.4757 10.6101C16.2063 10.8263 15.8443 10.8881 15.5184 10.7735C15.1925 10.6589 14.9488 10.3843 14.8738 10.047C14.6373 8.98255 14.216 7.89638 13.5922 6.80703C13.3532 6.38963 13.4452 5.86121 13.8112 5.54914C14.8293 4.68111 16.0252 3.90063 17.3691 3.20265C17.6174 3.0737 17.9083 3.05465 18.1712 3.15011ZM15.7334 6.57015C16.0055 7.11494 16.237 7.66325 16.428 8.21336C16.893 7.93408 17.3847 7.68378 17.9022 7.46112C17.7492 6.83432 17.5531 6.18553 17.3129 5.51864C16.7423 5.85531 16.2154 6.20603 15.7334 6.57015Z" fill="#23323F"/>
<path fill-rule="evenodd" clip-rule="evenodd" d="M5.82898 3.14004C6.09285 3.0443 6.38481 3.06388 6.63354 3.19398C7.98838 3.90267 9.17116 4.682 10.1949 5.54579C10.5659 5.85878 10.6585 6.39294 10.4146 6.81257C9.78336 7.89872 9.3627 8.9829 9.12623 10.047C9.05155 10.3831 8.80924 10.6571 8.48483 10.7724C8.16043 10.8876 7.79955 10.8279 7.52956 10.6143C6.71128 9.96687 5.73867 9.42782 4.60322 9.02165C4.14267 8.8569 3.86888 8.38318 3.95605 7.90188C4.20193 6.54419 4.64671 5.14435 5.24619 3.69734C5.35362 3.43801 5.56511 3.23578 5.82898 3.14004ZM6.68616 5.51154C6.44275 6.18397 6.24432 6.8328 6.09302 7.46009C6.61312 7.68483 7.10605 7.93757 7.57121 8.21723C7.76301 7.66593 7.99623 7.11615 8.27195 6.56966C7.78632 6.20365 7.25885 5.8512 6.68616 5.51154Z" fill="#23323F"/>
<path fill-rule="evenodd" clip-rule="evenodd" d="M23.5933 6.44432C23.8027 6.62028 23.9309 6.87435 23.9481 7.14736C24.2171 11.4372 23.418 14.9381 21.3857 17.498C19.3458 20.0674 16.1953 21.5237 12.1144 21.9934C11.7004 22.041 11.3004 21.8271 11.1102 21.4563C10.9201 21.0856 10.9797 20.6359 11.2599 20.3275C14.4977 16.7639 15.5933 13.3511 14.8729 10.0427C14.7922 9.67193 14.9283 9.28739 15.2243 9.04993C16.232 8.24156 17.4023 7.6111 18.7214 7.13906C19.9658 6.68867 21.3338 6.38339 22.8396 6.21608C23.1115 6.18587 23.3838 6.26836 23.5933 6.44432ZM21.9956 8.35183C21.0505 8.51105 20.1888 8.73478 19.4005 9.02023L19.3968 9.02154L19.3968 9.02153C18.4698 9.35315 17.656 9.76503 16.9478 10.2574C17.4497 13.4121 16.5766 16.5148 14.4658 19.5267C16.8509 18.8867 18.61 17.7777 19.8193 16.2544C21.2879 14.4046 22.0545 11.8077 21.9956 8.35183Z" fill="#23323F"/>
<path fill-rule="evenodd" clip-rule="evenodd" d="M0.409384 6.44212C0.620339 6.26611 0.894415 6.18465 1.16726 6.21686C2.66065 6.39317 4.03928 6.68675 5.27996 7.13951C6.59845 7.6115 7.76839 8.24183 8.77575 9.04993C9.07176 9.28739 9.20786 9.67193 9.12712 10.0427C8.40674 13.3511 9.50229 16.7639 12.7401 20.3275C13.0203 20.6359 13.0799 21.0856 12.8898 21.4563C12.6997 21.8271 12.2996 22.041 11.8857 21.9934C7.80471 21.5237 4.65421 20.0674 2.61433 17.498C0.582032 14.9381 -0.217108 11.4372 0.0519767 7.14736C0.069176 6.87317 0.198428 6.61812 0.409384 6.44212ZM2.00439 8.35586C1.94615 11.8097 2.71267 14.4053 4.18071 16.2544C5.39006 17.7777 7.14911 18.8867 9.5342 19.5267C7.4234 16.5148 6.55033 13.4121 7.05227 10.2574C6.34406 9.76503 5.53021 9.35315 4.60319 9.02153L4.59695 9.0193L4.59696 9.01928C3.8203 8.73563 2.95654 8.51686 2.00439 8.35586Z" fill="#23323F"/>
<path fill-rule="evenodd" clip-rule="evenodd" d="M11.9998 2C12.2816 2 12.5502 2.11885 12.7398 2.32733C13.7812 3.47286 14.6464 4.64103 15.3176 5.81301L15.3176 5.81306C16.0304 7.05775 16.5422 8.33319 16.8171 9.61791C17.7267 13.75 16.261 17.7972 12.7399 21.6725C12.5504 21.8811 12.2817 22 11.9998 22C11.718 22 11.4492 21.8811 11.2597 21.6725C7.73756 17.796 6.2731 13.7488 7.17272 9.61724L7.17363 9.61307L7.17364 9.61307C7.45709 8.33754 7.95586 7.06371 8.67204 5.81306L8.67546 5.80709L8.67548 5.80711C9.35482 4.6395 10.2182 3.47323 11.2599 2.32733C11.4494 2.11885 11.7181 2 11.9998 2ZM10.4059 6.80991C9.78344 7.89756 9.3629 8.982 9.12648 10.0448C8.46492 13.0864 9.33817 16.2162 11.9998 19.4703C14.6621 16.2154 15.5335 13.086 14.8633 10.0453L14.8619 10.039L14.8619 10.039C14.6366 8.98476 14.2087 7.90127 13.5821 6.80699M10.4059 6.80991C10.8433 6.05861 11.3738 5.29602 11.9997 4.53022C12.6253 5.29631 13.1531 6.05794 13.582 6.80694" fill="#23323F"/>
</svg>
