<svg width="24" height="24" viewBox="0 0 24 24" fill="none" xmlns="http://www.w3.org/2000/svg">
<path d="M17 8C17.5523 8 18 7.55228 18 7C18 6.44772 17.5523 6 17 6C16.4477 6 16 6.44772 16 7C16 7.55228 16.4477 8 17 8Z" fill="#23323F"/>
<path d="M21 7C21 7.55228 20.5523 8 20 8C19.4477 8 19 7.55228 19 7C19 6.44772 19.4477 6 20 6C20.5523 6 21 6.44772 21 7Z" fill="#23323F"/>
<path d="M3 3C1.34315 3 0 4.34315 0 6V12C0 13.6569 1.34315 15 3 15H21C22.6569 15 24 13.6569 24 12V6C24 4.34315 22.6569 3 21 3H3ZM2 6C2 5.44772 2.44772 5 3 5H21C21.5523 5 22 5.44771 22 6V12C22 12.5523 21.5523 13 21 13H20V10C20 9.44772 19.5523 9 19 9H5C4.44772 9 4 9.44772 4 10V13H3C2.44772 13 2 12.5523 2 12V6ZM6 11H18V13H6V11Z" fill="#23323F"/>
<path d="M13 17C13 16.4477 12.5523 16 12 16C11.4477 16 11 16.4477 11 17V21C11 21.5523 11.4477 22 12 22C12.5523 22 13 21.5523 13 21V17Z" fill="#23323F"/>
<path d="M7 16C7.55228 16 8 16.4477 8 17C8 18.0455 7.89967 19.0203 7.50796 19.8691C7.09707 20.7593 6.41397 21.411 5.44721 21.8944C4.95324 22.1414 4.35256 21.9412 4.10557 21.4472C3.85858 20.9532 4.05881 20.3526 4.55279 20.1056C5.18603 19.789 5.50293 19.4407 5.69204 19.0309C5.90033 18.5797 6 17.9545 6 17C6 16.4477 6.44772 16 7 16Z" fill="#23323F"/>
<path d="M16 17C16 16.4477 16.4477 16 17 16C17.5523 16 18 16.4477 18 17C18 17.9545 18.0997 18.5797 18.308 19.0309C18.4971 19.4407 18.814 19.789 19.4472 20.1056C19.9412 20.3526 20.1414 20.9532 19.8944 21.4472C19.6474 21.9412 19.0468 22.1414 18.5528 21.8944C17.586 21.411 16.9029 20.7593 16.492 19.8691C16.1003 19.0203 16 18.0455 16 17Z" fill="#23323F"/>
</svg>
