<svg width="22" height="16" viewBox="0 0 22 16" fill="none" xmlns="http://www.w3.org/2000/svg">
<path d="M10.9993 15.8753C11.6206 15.8753 12.1243 15.3716 12.1243 14.7503C12.1243 14.129 11.6206 13.6253 10.9993 13.6253C10.3779 13.6253 9.87427 14.129 9.87427 14.7503C9.87427 15.3716 10.3779 15.8753 10.9993 15.8753Z" fill="#23323F"/>
<path fill-rule="evenodd" clip-rule="evenodd" d="M10.9992 11.2503C10.0318 11.2503 9.1015 11.6232 8.4019 12.2914C8.00253 12.6729 7.36953 12.6584 6.98806 12.259C6.60659 11.8596 6.6211 11.2266 7.02047 10.8452C8.09217 9.82149 9.51719 9.25027 10.9992 9.25027C12.4813 9.25027 13.9063 9.82149 14.978 10.8452C15.3774 11.2266 15.3919 11.8596 15.0104 12.259C14.6289 12.6584 13.9959 12.6729 13.5966 12.2914C12.897 11.6232 11.9667 11.2503 10.9992 11.2503Z" fill="#23323F"/>
<path fill-rule="evenodd" clip-rule="evenodd" d="M10.9993 6.75027C8.84235 6.75027 6.77097 7.5942 5.22814 9.10159C4.8331 9.48755 4.19998 9.48019 3.81402 9.08516C3.42806 8.69012 3.43542 8.057 3.83045 7.67104C5.74694 5.79858 8.31996 4.75027 10.9993 4.75027C13.6787 4.75027 16.2517 5.79858 18.1682 7.67104C18.5632 8.057 18.5706 8.69012 18.1846 9.08516C17.7987 9.48019 17.1655 9.48755 16.7705 9.10159C15.2277 7.5942 13.1563 6.75027 10.9993 6.75027Z" fill="#23323F"/>
<path fill-rule="evenodd" clip-rule="evenodd" d="M10.9993 2.25027C7.65096 2.25027 4.43699 3.56725 2.05144 5.9168C1.65796 6.30434 1.02481 6.29952 0.637269 5.90604C0.249725 5.51256 0.254539 4.87941 0.648022 4.49187C3.40773 1.77381 7.12579 0.250275 10.9993 0.250275C14.8727 0.250275 18.5908 1.77381 21.3505 4.49187C21.744 4.87941 21.7488 5.51256 21.3613 5.90604C20.9737 6.29952 20.3406 6.30434 19.9471 5.9168C17.5615 3.56725 14.3476 2.25027 10.9993 2.25027Z" fill="#23323F"/>
</svg>
