<svg width="24" height="24" viewBox="0 0 24 24" fill="none" xmlns="http://www.w3.org/2000/svg">
<g clip-path="url(#clip0_403_2011)">
<path fill-rule="evenodd" clip-rule="evenodd" d="M8.83708 2.9544C8.83706 2.9544 8.83705 2.95441 8.83704 2.95442L2.43341 7.21548L3.98527 9.29136L5.11578 8.47298C6.10759 7.755 7.49536 8.46361 7.49536 9.68802V23C7.49536 23.5523 7.04764 24 6.49536 24C5.94307 24 5.49536 23.5523 5.49536 23V10.6672L4.75919 11.2002C4.09541 11.6807 3.16886 11.5396 2.67821 10.8832L0.515292 7.98994C-6.04689e-05 7.30056 0.169155 6.31983 0.88573 5.84301L7.72912 1.28933L7.72916 1.28931C10.3129 -0.429769 13.6871 -0.429769 16.2708 1.28931L16.2708 1.28933L23.1172 5.84496C23.8304 6.31959 24.002 7.29424 23.4936 7.98385L21.362 10.8752C20.8751 11.5356 19.948 11.6823 19.281 11.2045L18.5145 10.6554V23C18.5145 23.5523 18.0668 24 17.5145 24C16.9623 24 16.5145 23.5523 16.5145 23V9.6821C16.5145 8.46106 17.8955 7.75162 18.8881 8.46273L20.0448 9.29142L21.5724 7.21937L15.1629 2.95442C15.1629 2.95441 15.1629 2.9544 15.1629 2.9544C13.2503 1.68187 10.7497 1.68187 8.83708 2.9544Z" fill="#23323F"/>
<path fill-rule="evenodd" clip-rule="evenodd" d="M15.3163 1.05131C15.8402 1.22596 16.1234 1.79228 15.9487 2.31622L14.9487 5.31622C14.7741 5.84017 14.2077 6.12333 13.6838 5.94868C13.1599 5.77403 12.8767 5.20771 13.0513 4.68377L14.0513 1.68377C14.226 1.15983 14.7923 0.876666 15.3163 1.05131Z" fill="#23323F"/>
<path fill-rule="evenodd" clip-rule="evenodd" d="M8.63779 1.06791C9.15256 0.86785 9.73205 1.12298 9.93211 1.63776L9.00002 1.99999L8.06794 2.36223C7.86788 1.84746 8.12301 1.26797 8.63779 1.06791ZM9.00002 1.99999L8.06794 2.36223L8.12462 2.50877C8.16175 2.60499 8.21617 2.74639 8.28507 2.92644C8.42289 3.28657 8.6186 3.80116 8.84977 4.41804C9.31242 5.6526 9.91581 7.29334 10.4813 8.92422C11.6046 12.1641 12 15.6101 12 19.1133V21C12 21.5523 12.4477 22 13 22C13.5523 22 14 21.5523 14 21V19.1133C14 15.4672 13.5896 11.7839 12.3709 8.26904C11.798 6.61674 11.1884 4.95917 10.7226 3.71621C10.4895 3.09433 10.2922 2.57535 10.153 2.21161C10.0834 2.02972 10.0283 1.8866 9.99053 1.78879L9.93211 1.63776L9.00002 1.99999Z" fill="#23323F"/>
</g>
<defs>
<clipPath id="clip0_403_2011">
<rect width="24" height="24" fill="white"/>
</clipPath>
</defs>
</svg>
