<svg width="24" height="24" viewBox="0 0 24 24" fill="none" xmlns="http://www.w3.org/2000/svg">
<path d="M12 20C15.3137 20 18 17.3137 18 14C18 10.6863 15.3137 8 12 8C8.68629 8 6 10.6863 6 14C6 17.3137 8.68629 20 12 20ZM8 14C8 11.7909 9.79086 10 12 10C13.0244 10 13.9588 10.3851 14.6665 11.0183C13.1666 11.1842 12 12.4559 12 14C12 15.5441 13.1666 16.8158 14.6665 16.9817C13.9588 17.6149 13.0244 18 12 18C9.79086 18 8 16.2091 8 14ZM15 13C15.5523 13 16 13.4477 16 14C16 14.5523 15.5523 15 15 15C14.4477 15 14 14.5523 14 14C14 13.4477 14.4477 13 15 13Z" fill="#23323F"/>
<path d="M5 0C3.34315 0 2 1.34314 2 3V21C2 22.6569 3.34315 24 5 24H19C20.6569 24 22 22.6569 22 21V3C22 1.34315 20.6569 0 19 0H5ZM20 4H4V3C4 2.44772 4.44771 2 5 2H19C19.5523 2 20 2.44772 20 3V4ZM4 6H20V21C20 21.5523 19.5523 22 19 22H5C4.44772 22 4 21.5523 4 21V6Z" fill="#23323F"/>
</svg>
