<svg width="24" height="24" viewBox="0 0 24 24" fill="none" xmlns="http://www.w3.org/2000/svg">
<path fill-rule="evenodd" clip-rule="evenodd" d="M0.323954 7.00041C0.112075 3.7516 2.69006 1 5.94578 1C9.24981 1 11.8446 3.8302 11.5584 7.12182L10.5551 18.659C10.3416 21.115 8.28554 23 5.82027 23C3.31549 23 1.24063 21.056 1.07762 18.5566L0.323954 7.00041ZM5.94578 3C3.84585 3 2.18305 4.77477 2.31971 6.87025L3.07338 18.4264C3.16779 19.8741 4.36953 21 5.82027 21C7.24813 21 8.43895 19.9082 8.56265 18.4857L9.56588 6.94856C9.7505 4.82547 8.07687 3 5.94578 3Z" fill="#23323F"/>
<path fill-rule="evenodd" clip-rule="evenodd" d="M12.324 7.00041C12.1121 3.7516 14.6901 1 17.9458 1C21.2498 1 23.8446 3.8302 23.5584 7.12182L22.5551 18.659C22.3416 21.115 20.2855 23 17.8203 23C15.3155 23 13.2406 21.056 13.0776 18.5566L12.324 7.00041ZM17.9458 3C15.8459 3 14.1831 4.77477 14.3197 6.87025L15.0734 18.4264C15.1678 19.8741 16.3695 21 17.8203 21C19.2481 21 20.439 19.9082 20.5626 18.4857L21.5659 6.94856C21.7505 4.82547 20.0769 3 17.9458 3Z" fill="#23323F"/>
<path fill-rule="evenodd" clip-rule="evenodd" d="M5.99977 11C4.63581 10.9996 3.23447 11.2961 1.32212 11.9467L0.677979 10.0533C2.68997 9.36881 4.32645 8.99953 6.00033 9C7.67397 9.00047 9.31019 9.37059 11.3214 10.053L10.6787 11.947C8.76556 11.2978 7.36395 11.0004 5.99977 11Z" fill="#23323F"/>
<path fill-rule="evenodd" clip-rule="evenodd" d="M17.9998 11C16.6358 10.9996 15.2345 11.2961 13.3221 11.9467L12.678 10.0533C14.69 9.36881 16.3265 8.99953 18.0003 9C19.674 9.00047 21.3102 9.37059 23.3214 10.053L22.6787 11.947C20.7656 11.2978 19.364 11.0004 17.9998 11Z" fill="#23323F"/>
<path fill-rule="evenodd" clip-rule="evenodd" d="M8 7C8 7.55228 7.55228 8 7 8L5 8C4.44772 8 4 7.55228 4 7C4 6.44771 4.44772 6 5 6L7 6C7.55228 6 8 6.44772 8 7Z" fill="#23323F"/>
<path fill-rule="evenodd" clip-rule="evenodd" d="M20 7C20 7.55228 19.5523 8 19 8L17 8C16.4477 8 16 7.55228 16 7C16 6.44771 16.4477 6 17 6L19 6C19.5523 6 20 6.44772 20 7Z" fill="#23323F"/>
</svg>
