<svg width="24" height="24" viewBox="0 0 24 24" fill="none" xmlns="http://www.w3.org/2000/svg">
<g clip-path="url(#clip0_403_2020)">
<path fill-rule="evenodd" clip-rule="evenodd" d="M0 13C0 11.8954 0.895431 11 2 11H22C23.1046 11 24 11.8954 24 13V16C24 17.1046 23.1046 18 22 18H2C0.895431 18 0 17.1046 0 16V13ZM22 13H2V16H22V13Z" fill="#23323F"/>
<path fill-rule="evenodd" clip-rule="evenodd" d="M20 16C20.5523 16 21 16.4477 21 17L21 18C21 18.5523 20.5523 19 20 19C19.4477 19 19 18.5523 19 18L19 17C19 16.4477 19.4477 16 20 16Z" fill="#23323F"/>
<path fill-rule="evenodd" clip-rule="evenodd" d="M23 10C23.5523 10 24 10.4477 24 11L24 13C24 13.5523 23.5523 14 23 14C22.4477 14 22 13.5523 22 13L22 11C22 10.4477 22.4477 10 23 10Z" fill="#23323F"/>
<path fill-rule="evenodd" clip-rule="evenodd" d="M1 10C1.55228 10 2 10.4477 2 11L2 13C2 13.5523 1.55228 14 1 14C0.447715 14 1.55276e-07 13.5523 1.31134e-07 13L4.37115e-08 11C1.95703e-08 10.4477 0.447715 10 1 10Z" fill="#23323F"/>
<path fill-rule="evenodd" clip-rule="evenodd" d="M4 16C4.55228 16 5 16.4477 5 17L5 18C5 18.5523 4.55228 19 4 19C3.44772 19 3 18.5523 3 18L3 17C3 16.4477 3.44772 16 4 16Z" fill="#23323F"/>
<path fill-rule="evenodd" clip-rule="evenodd" d="M2 7C2 5.89543 2.89543 5 4 5H11C12.1046 5 13 5.89543 13 7V11C13 12.1046 12.1046 13 11 13H4C2.89543 13 2 12.1046 2 11V7ZM11 7H4V11H11V7Z" fill="#23323F"/>
<path fill-rule="evenodd" clip-rule="evenodd" d="M11 7C11 5.89543 11.8954 5 13 5H20C21.1046 5 22 5.89543 22 7V11C22 12.1046 21.1046 13 20 13H13C11.8954 13 11 12.1046 11 11V7ZM20 7H13V11H20V7Z" fill="#23323F"/>
</g>
<defs>
<clipPath id="clip0_403_2020">
<rect width="24" height="24" fill="white"/>
</clipPath>
</defs>
</svg>
