<svg width="24" height="24" viewBox="0 0 24 24" fill="none" xmlns="http://www.w3.org/2000/svg">
<path d="M1.08551 0.595446C1.24563 0.233466 1.6042 0 2.00002 0H22C22.3958 0 22.7544 0.233466 22.9145 0.595446C23.0747 0.957427 23.0062 1.37979 22.74 1.67267L13 12.3866V22H18C18.5523 22 19 22.4477 19 23C19 23.5523 18.5523 24 18 24H6.00002C5.44773 24 5.00002 23.5523 5.00002 23C5.00002 22.4477 5.44773 22 6.00002 22H11V12.3866L1.26008 1.67267C0.993824 1.37979 0.925376 0.957427 1.08551 0.595446ZM18.8304 3L19.7395 2H4.26057L5.16966 3H18.8304ZM17.0122 5H6.98784L12 10.5134L17.0122 5Z" fill="#23323F"/>
</svg>
