<svg width="24" height="24" viewBox="0 0 24 24" fill="none" xmlns="http://www.w3.org/2000/svg">
<g clip-path="url(#clip0_403_2021)">
<path fill-rule="evenodd" clip-rule="evenodd" d="M24 17C24 15.8954 23.1046 15 22 15H4C2.89543 15 2 15.8954 2 17V18C2 19.1046 2.89543 20 4 20H22C23.1046 20 24 19.1046 24 18V17ZM4 17H22V18H4V17Z" fill="#23323F"/>
<path fill-rule="evenodd" clip-rule="evenodd" d="M4.13542 6.49751C4.31442 6.18951 4.64376 6 5 6H8.45224C9.58191 6 10.7314 6.18116 11.8191 6.61383C16.4473 8.45498 19.0221 10.6279 22.784 15.3792C23.0221 15.6799 23.0672 16.0902 22.9002 16.4355C22.7332 16.7807 22.3835 17 22 17H3.5C2.94772 17 2.5 16.5523 2.5 16C2.5 15.4918 2.34407 15.2817 2.19673 15.1666C2.00559 15.0172 1.63684 14.8824 1 14.8824C0.64222 14.8824 0.311699 14.6912 0.133256 14.3811C-0.0451882 14.071 -0.0443635 13.6892 0.135418 13.3799L4.13542 6.49751ZM5.57543 8L2.59186 13.1335C2.89067 13.2422 3.1732 13.3914 3.42827 13.5908C3.89651 13.9567 4.20592 14.4386 4.36702 15H19.8911C16.9795 11.5704 14.7525 9.93322 11.0798 8.47218C10.2639 8.1476 9.37121 8 8.45224 8H5.57543Z" fill="#23323F"/>
<path fill-rule="evenodd" clip-rule="evenodd" d="M0.0715452 4.6286C0.276659 4.11582 0.858629 3.8664 1.37141 4.07151L6.37141 6.07151C6.8842 6.27663 7.13361 6.8586 6.9285 7.37138C6.72339 7.88417 6.14141 8.13358 5.62863 7.92847L0.628631 5.92847C0.115848 5.72335 -0.133568 5.14138 0.0715452 4.6286Z" fill="#23323F"/>
<path fill-rule="evenodd" clip-rule="evenodd" d="M5.5 11C5.5 10.4477 5.94772 10 6.5 10H10C10.5523 10 11 10.4477 11 11C11 11.5523 10.5523 12 10 12H6.5C5.94772 12 5.5 11.5523 5.5 11Z" fill="#23323F"/>
</g>
<defs>
<clipPath id="clip0_403_2021">
<rect width="24" height="24" fill="white" transform="matrix(-1 0 0 1 24 0)"/>
</clipPath>
</defs>
</svg>
