<svg width="40" height="40" viewBox="0 0 40 40" fill="none" xmlns="http://www.w3.org/2000/svg">
<path fill-rule="evenodd" clip-rule="evenodd" d="M3.75 8.75C3.75 8.05964 4.30964 7.5 5 7.5H35C35.6904 7.5 36.25 8.05964 36.25 8.75V30C36.25 30.663 35.9866 31.2989 35.5178 31.7678C35.0489 32.2366 34.413 32.5 33.75 32.5H6.25C5.58696 32.5 4.95108 32.2366 4.48223 31.7678C4.01339 31.2989 3.75 30.663 3.75 30V8.75ZM6.25 10V30H33.75V10H6.25Z" fill="#3CA0F0"/>
<path fill-rule="evenodd" clip-rule="evenodd" d="M4.07856 7.90535C4.54506 7.39645 5.33576 7.36207 5.84466 7.82856L20 20.8043L34.1554 7.82856C34.6642 7.36207 35.455 7.39645 35.9214 7.90535C36.3879 8.41425 36.3536 9.20496 35.8447 9.67145L20.8447 23.4214C20.3668 23.8595 19.6333 23.8595 19.1554 23.4214L4.15535 9.67145C3.64645 9.20496 3.61207 8.41425 4.07856 7.90535Z" fill="#3CA0F0"/>
</svg>
