<svg width="40" height="40" viewBox="0 0 40 40" fill="none" xmlns="http://www.w3.org/2000/svg">
<path d="M20 32.5C21.0355 32.5 21.875 31.6605 21.875 30.625C21.875 29.5895 21.0355 28.75 20 28.75C18.9645 28.75 18.125 29.5895 18.125 30.625C18.125 31.6605 18.9645 32.5 20 32.5Z" fill="#3CA0F0"/>
<path fill-rule="evenodd" clip-rule="evenodd" d="M28.75 6.25C28.75 5.55964 28.1904 5 27.5 5L12.5 5C11.8096 5 11.25 5.55964 11.25 6.25L11.25 33.75C11.25 34.4404 11.8096 35 12.5 35H27.5C28.1904 35 28.75 34.4404 28.75 33.75V6.25ZM27.5 2.5C29.5711 2.5 31.25 4.17893 31.25 6.25L31.25 33.75C31.25 35.8211 29.5711 37.5 27.5 37.5H12.5C10.4289 37.5 8.75 35.8211 8.75 33.75L8.75 6.25C8.75 4.17893 10.4289 2.5 12.5 2.5L27.5 2.5Z" fill="#3CA0F0"/>
</svg>
