<svg width="40" height="40" viewBox="0 0 40 40" fill="none" xmlns="http://www.w3.org/2000/svg">
<path fill-rule="evenodd" clip-rule="evenodd" d="M20 12.5C17.9289 12.5 16.25 14.1789 16.25 16.25C16.25 18.3211 17.9289 20 20 20C22.0711 20 23.75 18.3211 23.75 16.25C23.75 14.1789 22.0711 12.5 20 12.5ZM13.75 16.25C13.75 12.7982 16.5482 10 20 10C23.4518 10 26.25 12.7982 26.25 16.25C26.25 19.7018 23.4518 22.5 20 22.5C16.5482 22.5 13.75 19.7018 13.75 16.25Z" fill="#3CA0F0"/>
<path fill-rule="evenodd" clip-rule="evenodd" d="M20 5C17.0163 5 14.1548 6.18526 12.045 8.29505C9.93526 10.4048 8.75 13.2663 8.75 16.25C8.75 21.4249 11.6398 26.1371 14.6933 29.6485C16.2047 31.3867 17.7194 32.7881 18.8564 33.7546C19.3061 34.1368 19.6953 34.4498 20 34.6875C20.3047 34.4498 20.6939 34.1368 21.1436 33.7546C22.2806 32.7881 23.7953 31.3867 25.3067 29.6485C28.3602 26.1371 31.25 21.4249 31.25 16.25C31.25 13.2663 30.0647 10.4048 27.955 8.29505C25.8452 6.18526 22.9837 5 20 5ZM20 36.25C19.2832 37.274 19.2828 37.2738 19.2824 37.2735L19.2814 37.2728L19.2785 37.2707L19.2692 37.2642L19.2374 37.2416C19.2104 37.2223 19.1719 37.1946 19.1226 37.1586C19.024 37.0866 18.8824 36.9817 18.7038 36.8452C18.3468 36.5723 17.8415 36.173 17.2373 35.6595C16.0306 34.6338 14.4203 33.1446 12.8067 31.289C9.61019 27.6129 6.25 22.3251 6.25 16.25C6.25 12.6033 7.69866 9.10591 10.2773 6.52728C12.8559 3.94866 16.3533 2.5 20 2.5C23.6467 2.5 27.1441 3.94866 29.7227 6.52728C32.3013 9.10591 33.75 12.6033 33.75 16.25C33.75 22.3251 30.3898 27.6129 27.1933 31.289C25.5797 33.1446 23.9694 34.6338 22.7627 35.6595C22.1585 36.173 21.6532 36.5723 21.2962 36.8452C21.1176 36.9817 20.976 37.0866 20.8774 37.1586C20.8281 37.1946 20.7896 37.2223 20.7626 37.2416L20.7308 37.2642L20.7215 37.2707L20.7186 37.2728L20.7176 37.2735C20.7172 37.2738 20.7168 37.274 20 36.25ZM20 36.25L20.7168 37.274C20.2864 37.5753 19.7136 37.5753 19.2832 37.274L20 36.25Z" fill="#3CA0F0"/>
</svg>
