<svg width="40" height="40" viewBox="0 0 40 40" fill="none" xmlns="http://www.w3.org/2000/svg">
<path fill-rule="evenodd" clip-rule="evenodd" d="M11 20C11 19.5858 11.3358 19.25 11.75 19.25H28.25C28.6642 19.25 29 19.5858 29 20C29 20.4142 28.6642 20.75 28.25 20.75H11.75C11.3358 20.75 11 20.4142 11 20Z" fill="#F55347"/>
<path fill-rule="evenodd" clip-rule="evenodd" d="M20 11C20.4142 11 20.75 11.3358 20.75 11.75V28.25C20.75 28.6642 20.4142 29 20 29C19.5858 29 19.25 28.6642 19.25 28.25V11.75C19.25 11.3358 19.5858 11 20 11Z" fill="#F55347"/>
<path d="M4 1H36V-1H4V1ZM39 4V36H41V4H39ZM36 39H4V41H36V39ZM1 36V4H-1V36H1ZM4 39C2.34315 39 1 37.6569 1 36H-1C-1 38.7614 1.23858 41 4 41V39ZM39 36C39 37.6569 37.6569 39 36 39V41C38.7614 41 41 38.7614 41 36H39ZM36 1C37.6569 1 39 2.34315 39 4H41C41 1.23858 38.7614 -1 36 -1V1ZM4 -1C1.23858 -1 -1 1.23858 -1 4H1C1 2.34315 2.34315 1 4 1V-1Z" fill="#F55347"/>
</svg>
