<svg width="72" height="72" viewBox="0 0 72 72" fill="none" xmlns="http://www.w3.org/2000/svg">
<path d="M69.5813 13.5636C69.5813 13.749 69.5598 13.9257 69.521 14.0982C69.5511 13.8826 69.5684 13.6628 69.577 13.4429C69.5813 13.4817 69.5813 13.5205 69.5813 13.5636Z" stroke="#3CA0F0" stroke-width="2"/>
<path d="M69.5811 13.1713C69.5811 13.2618 69.5811 13.3524 69.5768 13.4429C69.5682 13.6628 69.5509 13.8827 69.5208 14.0982C69.2793 15.1459 68.3351 15.9306 67.2142 15.9306C65.9078 15.9306 64.8472 14.87 64.8472 13.5636C64.8472 12.253 63.7866 11.1967 62.4803 11.1967C61.1739 11.1967 60.1133 12.253 60.1133 13.5636L60.1521 19.8065L60.178 24.023L60.2168 29.921C60.2168 30.0029 60.2125 30.0848 60.2039 30.1624C60.0831 31.3567 59.0743 32.2879 57.8499 32.2879C56.5435 32.2879 55.4829 31.2273 55.4829 29.921V13.1713C55.4829 9.27812 58.6388 6.12219 62.532 6.12219C66.4252 6.12219 69.5811 9.27812 69.5811 13.1713Z" stroke="#3CA0F0" stroke-width="2"/>
<path d="M55.3536 13.1713C55.3536 13.2618 55.3536 13.3524 55.3493 13.4429C55.3406 13.6628 55.3234 13.8827 55.2932 14.0982C55.0518 15.1459 54.1076 15.9306 52.9866 15.9306C51.6803 15.9306 50.6197 14.87 50.6197 13.5636C50.6197 12.253 49.5591 11.1967 48.2527 11.1967C46.9464 11.1967 45.8858 12.253 45.8858 13.5636L45.9246 19.8065L45.9289 20.6817L45.9634 25.5838L45.9893 29.921C45.9893 31.2273 44.9287 32.2879 43.6223 32.2879C42.316 32.2879 41.2554 31.2273 41.2554 29.921V13.1713C41.2554 12.8479 41.2769 12.5289 41.32 12.2142C41.4063 11.589 41.5701 10.9897 41.8115 10.4293C42.8808 7.89848 45.3857 6.12219 48.3045 6.12219C52.1976 6.12219 55.3536 9.27812 55.3536 13.1713Z" stroke="#3CA0F0" stroke-width="2"/>
<path d="M45.9893 25.2432H55.4829" stroke="#3CA0F0" stroke-width="2"/>
<path d="M45.9893 20.5696H55.4829" stroke="#3CA0F0" stroke-width="2"/>
<path d="M25.2174 31.3825C24.6008 31.1971 24.0016 30.9686 23.4238 30.7056C24.0447 30.8823 24.6439 31.1108 25.2174 31.3825Z" stroke="#3CA0F0" stroke-width="2"/>
<path d="M37.9272 28.7397C37.6082 29.0113 37.2762 29.2656 36.9356 29.5071C37.2589 29.2398 37.5866 28.9854 37.9272 28.7397Z" stroke="#3CA0F0" stroke-width="2"/>
<path d="M45.9634 25.5837L45.9892 29.921H55.4829V27.0108" stroke="#3CA0F0" stroke-width="2"/>
<path d="M65.8217 43.062C65.8217 52.7971 57.9319 60.6869 48.1968 60.6869C44.2432 60.6869 40.5958 59.3849 37.6554 57.1861C37.5908 57.13 37.5218 57.0783 37.4528 57.0266C37.345 56.9403 37.2372 56.8584 37.1295 56.7765C35.9137 55.8797 34.5469 55.177 33.0725 54.7157C31.779 54.3147 30.4037 54.0948 28.9766 54.0948C28.8473 54.0948 28.718 54.0948 28.5929 54.0991C27.2262 54.1379 25.9113 54.3751 24.6739 54.7847C24.3764 54.8838 24.0832 54.9916 23.7944 55.1123C22.5398 55.5219 21.2032 55.7461 19.8107 55.7461C12.7529 55.7461 7.03174 50.0249 7.03174 42.9672C7.03174 35.9051 12.7529 30.1839 19.8107 30.1839C21.0653 30.1839 22.2768 30.365 23.4236 30.7056C24.0013 30.9686 24.6006 31.1971 25.2171 31.3825C26.3079 31.7102 27.4547 31.9042 28.6404 31.9473C28.8042 31.9516 28.9723 31.9559 29.1362 31.9559C30.546 31.9559 31.9084 31.7403 33.1889 31.3437C34.5426 30.9212 35.8016 30.3003 36.9355 29.5071C37.276 29.2656 37.608 29.0112 37.9271 28.7396C38.9575 27.9981 40.0741 27.3686 41.2555 26.8599V29.9209C41.2555 31.2273 42.316 32.2879 43.6224 32.2879C44.9287 32.2879 45.9893 31.2273 45.9893 29.9209H55.483C55.483 31.2273 56.5436 32.2879 57.8499 32.2879C59.0744 32.2879 60.0832 31.3566 60.204 30.1624C63.6617 33.3787 65.8217 37.9703 65.8217 43.062Z" stroke="#3CA0F0" stroke-width="2"/>
<path d="M36.2287 62.1141C36.1813 62.0882 36.1382 62.058 36.0907 62.0278C36.0778 62.0192 36.0649 62.0063 36.0476 61.9977C35.8881 61.8813 35.72 61.7735 35.5518 61.6657C35.5389 61.6528 35.5216 61.6441 35.5044 61.6355C35.4268 61.5838 35.3535 61.532 35.2759 61.4717C35.6035 61.67 35.9226 61.8856 36.2287 62.1141Z" stroke="#3CA0F0" stroke-width="2"/>
<path d="M70.6676 44.0019C70.1847 55.8883 60.303 65.4466 48.4079 65.5587C46.3212 65.576 44.2949 65.313 42.3763 64.7956C40.1775 64.2093 38.1081 63.2996 36.2326 62.114C36.2326 62.114 36.2326 62.114 36.2283 62.114C35.9222 61.8855 35.6032 61.6699 35.2755 61.4716C35.2669 61.4673 35.2669 61.4672 35.2626 61.4629C33.2233 60.2299 30.8348 59.5185 28.2781 59.5185C27.114 59.5185 25.9845 59.6651 24.9066 59.941C24.7988 59.9712 24.6911 60.0014 24.5833 60.0316C23.0657 60.4584 21.4618 60.6869 19.8106 60.6869C18.9785 60.6869 18.155 60.6308 17.3531 60.5187C8.73034 59.3202 2.09082 51.9219 2.09082 42.9671C2.09082 33.9693 8.79501 26.5322 17.4824 25.394C18.2455 25.2948 19.0216 25.2431 19.8106 25.2431C21.2247 25.2431 22.6044 25.4112 23.9193 25.7216C23.9236 25.7216 23.9279 25.7259 23.9323 25.7259C23.9366 25.7259 23.9366 25.7259 23.9409 25.7259C24.4022 25.8855 24.8721 26.0191 25.3507 26.1312C25.355 26.1312 25.3636 26.1312 25.3679 26.1355C26.3423 26.3554 27.3555 26.4718 28.3945 26.4718C34.3399 26.4718 38.1986 23.3245 41.2554 20.9403V26.8598C40.074 27.3686 38.9574 27.998 37.927 28.7396C37.5864 28.9853 37.2587 29.2397 36.9354 29.507C35.8015 30.3003 34.5426 30.9211 33.1888 31.3437C31.9083 31.7403 30.5459 31.9559 29.1361 31.9559C28.9723 31.9559 28.8041 31.9516 28.6403 31.9473C27.4546 31.9041 26.3078 31.7101 25.217 31.3825C24.6436 31.1108 24.0444 30.8823 23.4235 30.7056C22.0827 30.3089 20.6556 30.1279 19.1725 30.2011C12.7873 30.5116 7.52315 35.6421 7.06615 42.0229C6.52723 49.5075 12.4381 55.7504 19.8106 55.7504C21.2032 55.7504 22.5397 55.5262 23.7943 55.1166C24.0918 55.0174 24.3849 54.9096 24.6738 54.7889C25.9112 54.3793 27.2261 54.1422 28.5929 54.1034C28.7179 54.0991 28.8472 54.0991 28.9766 54.0991C30.4036 54.0991 31.779 54.319 33.0724 54.7199C34.5469 55.1813 35.9136 55.884 37.1294 56.7808C37.2372 56.867 37.3406 56.9532 37.4527 57.0308C37.5217 57.0826 37.5907 57.1343 37.6554 57.1904C40.6561 59.4323 44.3897 60.7429 48.4338 60.6912C57.7507 60.5705 65.4724 53.0385 65.8087 43.7216C66.0027 38.3712 63.8082 33.5209 60.2039 30.1667C60.2125 30.089 60.2168 30.0071 60.2168 29.9252L60.178 24.0273C66.7399 28.1619 71.0125 35.5947 70.6676 44.0019Z" stroke="#3CA0F0" stroke-width="2"/>
<path d="M23.4238 30.7056C24.0447 30.8823 24.6439 31.1108 25.2174 31.3825C24.6008 31.1971 24.0016 30.9686 23.4238 30.7056Z" stroke="#3CA0F0" stroke-width="2"/>
<path d="M25.3507 26.1312C24.8722 26.0191 24.4022 25.8855 23.9409 25.726C24.4238 25.8424 24.8894 25.976 25.3507 26.1312Z" stroke="#3CA0F0" stroke-width="2"/>
<path d="M23.4238 30.7056C24.0447 30.8823 24.6439 31.1108 25.2174 31.3825C24.6008 31.1971 24.0016 30.9686 23.4238 30.7056Z" stroke="#3CA0F0" stroke-width="2"/>
<path d="M36.9356 29.5071C37.2589 29.2398 37.5866 28.9854 37.9272 28.7397C37.6082 29.0113 37.2762 29.2656 36.9356 29.5071Z" stroke="#3CA0F0" stroke-width="2"/>
<path d="M27.3599 39.5741C28.6102 39.5741 30.4511 38.0479 30.4511 38.0479C31.6971 37.4314 33.1544 37.4141 34.4133 38.0005L35.8447 38.6687C37.0777 39.2421 38.5048 39.2378 39.7378 38.6558L41.1132 38.0048C42.3591 37.4141 43.8035 37.4184 45.0494 38.0134C45.0494 38.0134 47.093 39.5741 48.3089 39.5741" stroke="#3CA0F0" stroke-width="2" stroke-linecap="round"/>
<path d="M12.9512 46.5025C14.2015 46.5025 16.0424 44.9762 16.0424 44.9762C17.2884 44.3597 18.7457 44.3425 20.0046 44.9288L21.436 45.5971C22.669 46.1705 24.0961 46.1662 25.3291 45.5841L26.7045 44.9331C27.9505 44.3425 29.3948 44.3468 30.6408 44.9417C30.6408 44.9417 32.6843 46.5025 33.9002 46.5025" stroke="#3CA0F0" stroke-width="2" stroke-linecap="round"/>
<path d="M40.2642 46.5025C41.5145 46.5025 43.3554 44.9762 43.3554 44.9762C44.6014 44.3597 46.0587 44.3425 47.3176 44.9288L48.7489 45.5971C49.982 46.1705 51.4091 46.1662 52.6421 45.5841L54.0175 44.9331C55.2634 44.3425 56.7078 44.3468 57.9537 44.9417C57.9537 44.9417 59.9973 46.5025 61.2131 46.5025" stroke="#3CA0F0" stroke-width="2" stroke-linecap="round"/>
</svg>
