<svg width="72" height="72" viewBox="0 0 72 72" fill="none" xmlns="http://www.w3.org/2000/svg">
<path d="M21.3238 24.0251C26.8965 22.5308 30.2932 17.1394 28.9106 11.983C27.5279 6.82656 21.8895 3.85782 16.3168 5.3521C10.7441 6.84639 7.34743 12.2378 8.73008 17.3942C10.1127 22.5506 15.7512 25.5194 21.3238 24.0251Z" stroke="#3CA0F0" stroke-width="2"/>
<path d="M35.3921 30.5282V30.5245" stroke="#3CA0F0" stroke-width="2"/>
<path d="M29.1923 40.7899C29.1793 40.7986 29.1707 40.8029 29.1577 40.8115" stroke="#3CA0F0" stroke-width="2"/>
<path d="M10.2869 36.2156C10.1274 35.8232 10.0024 35.4223 9.89892 35.0213C9.29533 32.6673 9.55401 30.1926 10.5327 27.9248V27.9205C11.2527 26.2477 12.365 24.6869 13.805 23.372" stroke="#3CA0F0" stroke-width="2"/>
<path d="M31.4258 22.0614C30.2272 21.1172 28.8217 20.4187 27.2998 19.9962" stroke="#3CA0F0" stroke-width="2"/>
<path d="M28.9381 12.0977C29.0157 12.1021 29.0976 12.1021 29.1795 12.1021C31.8827 12.1021 34.0686 9.91188 34.0686 7.21295C34.0686 4.51403 31.8827 2.32385 29.1795 2.32385C26.7996 2.32385 24.8164 4.02685 24.3853 6.2817" stroke="#3CA0F0" stroke-width="2"/>
<path d="M8.67449 17.1938C7.94587 17.6292 7.0879 17.8793 6.1782 17.8793C3.47928 17.8793 1.2891 15.6934 1.2891 12.9945C1.2891 10.2912 3.47928 8.10538 6.1782 8.10538C7.70874 8.10538 9.07976 8.80813 9.97221 9.91184" stroke="#3CA0F0" stroke-width="2"/>
<path d="M21.5915 12.9901C22.313 12.9901 22.8979 12.4053 22.8979 11.6838C22.8979 10.9623 22.313 10.3774 21.5915 10.3774C20.87 10.3774 20.2852 10.9623 20.2852 11.6838C20.2852 12.4053 20.87 12.9901 21.5915 12.9901Z" fill="#3CA0F0"/>
<path d="M14.6545 14.7147C15.376 14.7147 15.9608 14.1299 15.9608 13.4084C15.9608 12.6869 15.376 12.1021 14.6545 12.1021C13.933 12.1021 13.3481 12.6869 13.3481 13.4084C13.3481 14.1299 13.933 14.7147 14.6545 14.7147Z" fill="#3CA0F0"/>
<path d="M19.3134 17.1243C20.0102 16.9375 20.3542 15.9619 20.0816 14.9453C19.809 13.9288 19.0231 13.2562 18.3263 13.443C17.6294 13.6299 17.2854 14.6055 17.558 15.622C17.8306 16.6386 18.6165 17.3112 19.3134 17.1243Z" fill="#3CA0F0"/>
<path d="M9.89874 35.9353C8.71311 36.3276 7.27742 36.3233 5.83742 35.8318C2.78065 34.7799 0.857778 31.9257 1.55191 29.4596C2.24173 26.9849 5.28125 25.8381 8.34233 26.8814C9.1658 27.1617 9.90305 27.5799 10.5325 28.0757V28.08" stroke="#3CA0F0" stroke-width="2"/>
<path d="M29.2096 40.8116C29.2053 40.8072 29.201 40.7986 29.1923 40.7899" stroke="#3CA0F0" stroke-width="2"/>
<path d="M52.3099 36.2156C52.5169 35.5128 52.6635 34.7885 52.7454 34.0426C52.8014 33.5468 52.8316 33.0424 52.8316 32.5293C52.8316 31.5507 52.7238 30.5935 52.5255 29.6752H52.5212C51.2192 23.7212 45.9162 19.2675 39.5698 19.2675C36.4958 19.2675 33.6719 20.3109 31.4256 22.0613C28.3085 24.4886 26.308 28.274 26.308 32.5293C26.308 33.8098 26.4891 35.0429 26.8297 36.2156" stroke="#3CA0F0" stroke-width="2"/>
<path d="M62.3811 24.0962C67.0433 24.0962 70.8228 20.3168 70.8228 15.6546C70.8228 10.9924 67.0433 7.21289 62.3811 7.21289C57.7189 7.21289 53.9395 10.9924 53.9395 15.6546C53.9395 20.3168 57.7189 24.0962 62.3811 24.0962Z" stroke="#3CA0F0" stroke-width="2"/>
<path d="M52.5257 29.6753H52.5213C50.2794 28.2568 47.5331 27.4204 44.5582 27.4204C41.0315 27.4204 37.8152 28.5974 35.3922 30.5246V30.5289C33.5039 32.0336 32.0983 33.9953 31.3999 36.2156" stroke="#3CA0F0" stroke-width="2"/>
<path d="M58.2038 22.9883L52.7456 34.0427" stroke="#3CA0F0" stroke-width="2"/>
<path d="M61.0231 23.9843L57.9404 37.0434" stroke="#3CA0F0" stroke-width="2"/>
<path d="M58.5873 69.6374H13.5248C6.76455 69.6374 1.2891 64.1576 1.2891 57.4017V38.8973C1.2891 37.4185 2.48766 36.2156 3.97078 36.2156H68.1456C69.6244 36.2156 70.8273 37.4141 70.8273 38.8973V57.4017C70.823 64.1576 65.3432 69.6374 58.5873 69.6374Z" stroke="#3CA0F0" stroke-width="2"/>
<path d="M1.2891 40.8115H70.823" stroke="#3CA0F0" stroke-width="2"/>
<path d="M1.40967 45.7911H70.8228" stroke="#3CA0F0" stroke-width="2"/>
<path d="M53.9395 14.1198L56.8065 13.6111C57.5222 13.486 58.2551 13.6844 58.807 14.1586L60.3763 15.5081C60.9411 15.9953 61.6999 16.1936 62.4286 16.047L63.265 15.8789C63.9807 15.7366 64.7265 15.9263 65.287 16.3919L66.5847 17.4741C66.9038 17.7371 67.2832 17.9181 67.6928 17.9957L70.3356 18.4872" stroke="#3CA0F0" stroke-width="2"/>
<path d="M16.1498 51.1333C16.3633 50.4958 17.265 50.4958 17.4785 51.1333L18.731 54.8733C18.8259 55.1567 19.0902 55.3487 19.389 55.3514L23.3331 55.3869C24.0053 55.393 24.2839 56.2505 23.7436 56.6505L20.5737 58.9975C20.3335 59.1754 20.2326 59.486 20.3224 59.7711L21.5074 63.533C21.7094 64.1742 20.9799 64.7042 20.4325 64.314L17.2208 62.0245C16.9775 61.851 16.6508 61.851 16.4075 62.0245L13.1958 64.314C12.6484 64.7042 11.9189 64.1742 12.1209 63.533L13.3059 59.7711C13.3957 59.486 13.2948 59.1754 13.0546 58.9975L9.88466 56.6505C9.34435 56.2505 9.62298 55.393 10.2952 55.3869L14.2392 55.3514C14.5381 55.3487 14.8024 55.1567 14.8973 54.8733L16.1498 51.1333Z" stroke="#3CA0F0" stroke-width="2"/>
<path d="M35.1201 51.1333C35.3336 50.4959 36.2353 50.4959 36.4488 51.1333L37.7013 54.8733C37.7962 55.1567 38.0605 55.3487 38.3593 55.3514L42.3033 55.3869C42.9756 55.393 43.2542 56.2505 42.7139 56.6506L39.544 58.9975C39.3038 59.1754 39.2029 59.486 39.2927 59.7711L40.4777 63.533C40.6797 64.1743 39.9502 64.7043 39.4028 64.314L36.1911 62.0245C35.9478 61.851 35.6211 61.851 35.3778 62.0245L32.1661 64.314C31.6187 64.7043 30.8892 64.1743 31.0912 63.533L32.2762 59.7711C32.366 59.486 32.265 59.1754 32.0248 58.9975L28.8549 56.6506C28.3146 56.2505 28.5933 55.393 29.2655 55.3869L33.2095 55.3514C33.5084 55.3487 33.7726 55.1567 33.8676 54.8733L35.1201 51.1333Z" stroke="#3CA0F0" stroke-width="2"/>
<path d="M54.0902 51.1333C54.3036 50.4959 55.2053 50.4959 55.4188 51.1333L56.6714 54.8733C56.7663 55.1567 57.0305 55.3487 57.3294 55.3514L61.2734 55.3869C61.9457 55.393 62.2243 56.2505 61.684 56.6506L58.5141 58.9975C58.2739 59.1754 58.1729 59.486 58.2627 59.7711L59.4477 63.533C59.6497 64.1743 58.9202 64.7043 58.3728 64.314L55.1612 62.0245C54.9178 61.851 54.5912 61.851 54.3478 62.0245L51.1362 64.314C50.5887 64.7043 49.8593 64.1743 50.0612 63.533L51.2462 59.7711C51.336 59.486 51.2351 59.1754 50.9949 58.9975L47.825 56.6506C47.2847 56.2505 47.5633 55.393 48.2356 55.3869L52.1796 55.3514C52.4785 55.3487 52.7427 55.1567 52.8376 54.8733L54.0902 51.1333Z" stroke="#3CA0F0" stroke-width="2"/>
</svg>
