<svg width="72" height="72" viewBox="0 0 72 72" fill="none" xmlns="http://www.w3.org/2000/svg">
<path d="M36 70.792C55.2151 70.792 70.792 55.2151 70.792 36C70.792 16.785 55.2151 1.20807 36 1.20807C16.785 1.20807 1.20807 16.785 1.20807 36C1.20807 55.2151 16.785 70.792 36 70.792Z" stroke="#3CA0F0" stroke-width="2"/>
<path d="M36.1887 58.3635C48.4356 58.3635 58.3637 48.4354 58.3637 36.1885C58.3637 23.9415 48.4356 14.0134 36.1887 14.0134C23.9418 14.0134 14.0137 23.9415 14.0137 36.1885C14.0137 48.4354 23.9418 58.3635 36.1887 58.3635Z" stroke="#3CA0F0" stroke-width="2"/>
<path d="M29.8149 14.6996L27.9932 2.13586" stroke="#3CA0F0" stroke-width="2"/>
<path d="M42.1904 14.6996L44.0073 2.13586" stroke="#3CA0F0" stroke-width="2"/>
<path d="M36.0001 9.1136C36.9182 9.1136 37.6624 8.36937 37.6624 7.45131C37.6624 6.53326 36.9182 5.78903 36.0001 5.78903C35.0821 5.78903 34.3379 6.53326 34.3379 7.45131C34.3379 8.36937 35.0821 9.1136 36.0001 9.1136Z" fill="#3CA0F0"/>
<path d="M14.4628 30.7087L2.66739 26.0022" stroke="#3CA0F0" stroke-width="2"/>
<path d="M20.6479 19.9909L10.6742 12.1337" stroke="#3CA0F0" stroke-width="2"/>
<path d="M11.2784 23.3879C12.1965 23.3879 12.9407 22.6437 12.9407 21.7256C12.9407 20.8076 12.1965 20.0634 11.2784 20.0634C10.3603 20.0634 9.61612 20.8076 9.61612 21.7256C9.61612 22.6437 10.3603 23.3879 11.2784 23.3879Z" fill="#3CA0F0"/>
<path d="M20.6479 52.0043L10.6742 59.8663" stroke="#3CA0F0" stroke-width="2"/>
<path d="M14.458 41.2913L2.66739 46.0027" stroke="#3CA0F0" stroke-width="2"/>
<path d="M11.2784 51.9366C12.1965 51.9366 12.9407 51.1924 12.9407 50.2743C12.9407 49.3563 12.1965 48.6121 11.2784 48.6121C10.3603 48.6121 9.61612 49.3563 9.61612 50.2743C9.61612 51.1924 10.3603 51.9366 11.2784 51.9366Z" fill="#3CA0F0"/>
<path d="M42.1855 57.3004L44.0073 69.8642" stroke="#3CA0F0" stroke-width="2"/>
<path d="M29.8101 57.3004L27.9932 69.8642" stroke="#3CA0F0" stroke-width="2"/>
<path d="M36.0001 66.211C36.9182 66.211 37.6624 65.4668 37.6624 64.5487C37.6624 63.6307 36.9182 62.8864 36.0001 62.8864C35.0821 62.8864 34.3379 63.6307 34.3379 64.5487C34.3379 65.4668 35.0821 66.211 36.0001 66.211Z" fill="#3CA0F0"/>
<path d="M57.5371 41.2913L69.3325 45.9978" stroke="#3CA0F0" stroke-width="2"/>
<path d="M51.3521 52.0091L61.3257 59.8663" stroke="#3CA0F0" stroke-width="2"/>
<path d="M60.7219 51.9366C61.6399 51.9366 62.3841 51.1924 62.3841 50.2743C62.3841 49.3563 61.6399 48.6121 60.7219 48.6121C59.8038 48.6121 59.0596 49.3563 59.0596 50.2743C59.0596 51.1924 59.8038 51.9366 60.7219 51.9366Z" fill="#3CA0F0"/>
<path d="M51.3521 19.9957L61.3257 12.1337" stroke="#3CA0F0" stroke-width="2"/>
<path d="M57.542 30.7087L69.3326 25.9973" stroke="#3CA0F0" stroke-width="2"/>
<path d="M60.7219 23.3879C61.6399 23.3879 62.3841 22.6437 62.3841 21.7256C62.3841 20.8076 61.6399 20.0634 60.7219 20.0634C59.8038 20.0634 59.0596 20.8076 59.0596 21.7256C59.0596 22.6437 59.8038 23.3879 60.7219 23.3879Z" fill="#3CA0F0"/>
<path d="M26.3196 42.5392V40.6521L30.7291 36.5693C31.1041 36.2063 31.4186 35.8797 31.6726 35.5894C31.9307 35.299 32.1263 35.0148 32.2594 34.7365C32.3924 34.4542 32.459 34.1498 32.459 33.8232C32.459 33.4603 32.3763 33.1477 32.211 32.8856C32.0456 32.6195 31.8198 32.4159 31.5335 32.2747C31.2472 32.1296 30.9226 32.057 30.5597 32.057C30.1806 32.057 29.85 32.1336 29.5677 32.2868C29.2855 32.4401 29.0677 32.6598 28.9145 32.9461C28.7612 33.2324 28.6846 33.5732 28.6846 33.9683H26.1986C26.1986 33.1578 26.3821 32.4542 26.7491 31.8574C27.116 31.2606 27.6301 30.7989 28.2915 30.4722C28.9528 30.1456 29.7149 29.9823 30.5778 29.9823C31.465 29.9823 32.2372 30.1396 32.8945 30.4541C33.5558 30.7646 34.0699 31.1961 34.4369 31.7485C34.8038 32.3009 34.9873 32.934 34.9873 33.6478C34.9873 34.1155 34.8945 34.5772 34.709 35.0329C34.5276 35.4886 34.203 35.9946 33.7352 36.5511C33.2675 37.1035 32.6082 37.7669 31.7573 38.5411L29.9488 40.3133V40.398H35.1506V42.5392H26.3196Z" fill="#3CA0F0"/>
<path d="M41.5727 42.7086C40.7178 42.7086 39.9557 42.5513 39.2863 42.2368C38.621 41.9223 38.0927 41.4888 37.7016 40.9364C37.3105 40.3839 37.1068 39.7508 37.0907 39.0371H39.6311C39.6593 39.5169 39.861 39.9061 40.236 40.2045C40.611 40.5029 41.0566 40.6521 41.5727 40.6521C41.984 40.6521 42.3469 40.5613 42.6615 40.3799C42.98 40.1944 43.228 39.9383 43.4055 39.6117C43.5869 39.2811 43.6776 38.902 43.6776 38.4746C43.6776 38.0391 43.5849 37.656 43.3994 37.3253C43.2179 36.9947 42.9659 36.7366 42.6433 36.5511C42.3207 36.3656 41.9518 36.2709 41.5364 36.2668C41.1735 36.2668 40.8207 36.3414 40.4779 36.4906C40.1392 36.6398 39.8751 36.8435 39.6856 37.1015L37.3568 36.6842L37.9435 30.1517H45.5164V32.2929H40.1029L39.7823 35.3958H39.8549C40.0727 35.0894 40.4013 34.8353 40.8408 34.6337C41.2804 34.4321 41.7723 34.3313 42.3167 34.3313C43.0627 34.3313 43.728 34.5067 44.3127 34.8575C44.8974 35.2083 45.3592 35.6902 45.6979 36.3031C46.0366 36.912 46.2039 37.6136 46.1999 38.408C46.2039 39.2427 46.0104 39.9847 45.6192 40.6339C45.2321 41.2791 44.6898 41.7872 43.9922 42.1582C43.2986 42.5251 42.4921 42.7086 41.5727 42.7086Z" fill="#3CA0F0"/>
</svg>
