<svg width="54" height="72" viewBox="0 0 54 72" fill="none" xmlns="http://www.w3.org/2000/svg">
<path d="M19.3139 47.7391C22.2528 44.5282 24.2305 38.5506 24.2305 31.7114C24.2305 30.8652 24.2028 30.1156 24.1435 29.3003L26.0302 28.4347C26.7818 28.087 27.6322 28.087 28.3837 28.4347L30.2626 29.3041C30.2111 30.0615 30.1637 30.927 30.1637 31.7114C30.1637 38.5506 32.1414 44.5282 35.0803 47.7391H19.3139Z" stroke="#3CA0F0" stroke-width="2"/>
<path d="M27.5456 3.33377L31.7276 10.919C32.1288 11.6457 32.8357 12.1524 33.6578 12.3056L42.2443 13.8965C42.5541 13.9554 42.6772 14.3247 42.4588 14.5525L36.4617 20.8336C35.8898 21.4346 35.6158 22.2556 35.723 23.0765L36.847 31.6438C36.8867 31.9502 36.565 32.1819 36.283 32.0484L28.3915 28.3442C27.6369 27.9906 26.7632 27.9906 26.0086 28.3442L18.1171 32.0484C17.8312 32.1819 17.5135 31.9502 17.5532 31.6438L18.6771 23.0765C18.7844 22.2556 18.5143 21.4346 17.9384 20.8336L11.9334 14.5525C11.719 14.3247 11.8381 13.9554 12.1479 13.8965L20.7344 12.3056C21.5565 12.1524 22.2634 11.6457 22.6646 10.919L26.8506 3.33377C27.0015 3.06273 27.3986 3.06273 27.5456 3.33377Z" stroke="#3CA0F0" stroke-width="2"/>
<path d="M40.5983 50.0171V54.0001H13.7954V50.0171C13.7954 48.9732 14.5877 48.1305 15.5691 48.1305H38.8246C39.8061 48.1305 40.5983 48.9732 40.5983 50.0171Z" stroke="#3CA0F0" stroke-width="2"/>
<path d="M13.5988 54H40.4017C42.9046 54 44.9345 56.0152 44.9345 58.5V65.5435C44.9345 66.5178 44.1423 67.3043 43.1608 67.3043H10.8396C9.85818 67.3043 9.06592 66.5178 9.06592 65.5435V58.5C9.06592 56.0152 11.0958 54 13.5988 54Z" stroke="#3CA0F0" stroke-width="2"/>
<path d="M21.517 58.3043H32.4827C33.2645 58.3043 33.8977 58.7987 33.8977 59.4092V61.8951C33.8977 62.5055 33.2645 63 32.4827 63H21.517C20.7352 63 20.1021 62.5055 20.1021 61.8951V59.4092C20.1021 58.7987 20.7352 58.3043 21.517 58.3043Z" stroke="#3CA0F0" stroke-width="2"/>
</svg>
