<svg width="24" height="25" viewBox="0 0 24 25" fill="none" xmlns="http://www.w3.org/2000/svg">
<path d="M12 20C12.6213 20 13.125 19.4963 13.125 18.875C13.125 18.2537 12.6213 17.75 12 17.75C11.3787 17.75 10.875 18.2537 10.875 18.875C10.875 19.4963 11.3787 20 12 20Z" fill="#23323F"/>
<path d="M18 20.75V4.25C18 3.42157 17.3284 2.75 16.5 2.75L7.5 2.75C6.67157 2.75 6 3.42157 6 4.25L6 20.75C6 21.5784 6.67157 22.25 7.5 22.25H16.5C17.3284 22.25 18 21.5784 18 20.75Z" stroke="#23323F" stroke-width="1.5" stroke-linecap="round" stroke-linejoin="round"/>
</svg>
