<svg width="48" height="48" viewBox="0 0 48 48" fill="none" xmlns="http://www.w3.org/2000/svg">
<path fill-rule="evenodd" clip-rule="evenodd" d="M24 48C37.2548 48 48 37.2548 48 24C48 10.7452 37.2548 0 24 0C10.7452 0 0 10.7452 0 24C0 37.2548 10.7452 48 24 48Z" fill="url(#paint0_linear_216_1640)"/>
<path fill-rule="evenodd" clip-rule="evenodd" d="M19.6 35C18.8225 35 18.9546 34.7064 18.6865 33.9661L16.4 26.4412L34 16" fill="#C8DAEA"/>
<path fill-rule="evenodd" clip-rule="evenodd" d="M19.6 34.9995C20.2 34.9995 20.4651 34.7251 20.8 34.3995L24 31.2879L20.0084 28.8809" fill="#A9C9DD"/>
<path fill-rule="evenodd" clip-rule="evenodd" d="M20.0081 28.8815L29.6801 36.0273C30.7838 36.6363 31.5803 36.321 31.8553 35.0026L35.7923 16.45C36.1953 14.834 35.1762 14.101 34.1204 14.5804L11.0024 23.4946C9.42436 24.1275 9.43356 25.0079 10.7147 25.4002L16.6473 27.2518L30.3819 18.5868C31.0303 18.1936 31.6254 18.405 31.137 18.8385" fill="url(#paint1_linear_216_1640)"/>
<defs>
<linearGradient id="paint0_linear_216_1640" x1="18.0024" y1="2.0016" x2="6.0024" y2="30" gradientUnits="userSpaceOnUse">
<stop stop-color="#37AEE2"/>
<stop offset="1" stop-color="#1E96C8"/>
</linearGradient>
<linearGradient id="paint1_linear_216_1640" x1="20.9957" y1="25.4737" x2="23.56" y2="33.7687" gradientUnits="userSpaceOnUse">
<stop stop-color="#EFF7FC"/>
<stop offset="1" stop-color="white"/>
</linearGradient>
</defs>
</svg>
