<svg width="48" height="48" viewBox="0 0 48 48" fill="none" xmlns="http://www.w3.org/2000/svg">
<path fill-rule="evenodd" clip-rule="evenodd" d="M24 0C37.2548 0 48 10.7452 48 24C48 37.2548 37.2548 48 24 48C10.7452 48 0 37.2548 0 24C0 10.7452 10.7452 0 24 0Z" fill="#7F4DA0"/>
<path fill-rule="evenodd" clip-rule="evenodd" d="M30.3941 20.9579C30.2774 20.0096 29.9859 19.265 29.4683 18.6054C28.7962 17.7561 27.9372 17.2476 26.6655 16.9459C25.8368 16.7448 25.5019 16.7679 25.2022 17.0417C24.923 17.2982 24.8685 17.8125 25.0819 18.1455C25.2319 18.3872 25.405 18.4738 25.8864 18.5683C26.5275 18.6862 26.9706 18.8393 27.3736 19.0697C28.2291 19.5637 28.6274 20.3366 28.6701 21.588C28.69 22.1755 28.7408 22.3561 28.946 22.5645C29.3264 22.9455 30.0033 22.8714 30.2904 22.4155C30.3958 22.2437 30.4118 22.1689 30.423 21.77C30.4303 21.523 30.4197 21.1553 30.3941 20.9579Z" fill="white"/>
<path fill-rule="evenodd" clip-rule="evenodd" d="M33.7445 22.0267C33.5756 19.1214 32.4392 16.7839 30.4054 15.1392C29.2595 14.2151 27.8744 13.5797 26.3562 13.2707C25.8 13.1601 24.7761 13.0705 24.6004 13.1218C24.4346 13.1692 24.2002 13.3487 24.0957 13.511C23.9851 13.6871 23.9602 14.0801 24.0545 14.3074C24.2067 14.6874 24.4897 14.8217 25.2825 14.891C26.5046 14.998 27.7651 15.4273 28.7175 16.063C29.8048 16.7867 30.6692 17.7766 31.2283 18.9398C31.7115 19.9393 32.0086 21.3796 32.0004 22.6694C31.9976 23.1358 32.0697 23.3993 32.2573 23.5919C32.5404 23.888 32.9532 23.9528 33.3175 23.7561C33.7212 23.5438 33.8156 23.1711 33.7445 22.0267Z" fill="white"/>
<path fill-rule="evenodd" clip-rule="evenodd" d="M37.4522 33.2169C37.3954 33.0508 37.2628 32.7946 37.1681 32.6476C36.5712 31.7463 33.3645 29.2367 31.7635 28.416C30.8493 27.9464 30.172 27.7899 29.6699 27.9369C29.1299 28.0888 28.8457 28.3401 27.941 29.4645C27.5763 29.9151 27.2021 30.3374 27.1026 30.4037C26.8563 30.5745 26.3731 30.7121 26.0321 30.7121C25.2411 30.7073 23.8059 30.195 22.7022 29.5214C21.8449 28.9996 20.746 28.0651 19.9028 27.14C18.9081 26.0536 18.2308 25.0954 17.6955 24.0138C17.004 22.6238 16.8287 21.7747 17.1176 21.1532C17.1887 20.9967 17.2835 20.8307 17.326 20.7784C17.3687 20.731 17.814 20.3657 18.3065 19.9672C19.2729 19.1988 19.4292 19.0232 19.6091 18.4967C19.8365 17.8277 19.775 17.1446 19.4244 16.4568C19.1544 15.935 18.4487 14.7964 17.9371 14.0612C17.2598 13.0934 15.5735 11.0251 15.2371 10.7452C14.6309 10.2518 13.8541 10.1664 12.9967 10.4985C12.0921 10.8496 10.3963 12.2158 9.67155 13.1693C9.01789 14.0327 8.76692 14.6446 8.72899 15.4511C8.69586 16.1152 8.75268 16.3904 9.1032 17.2395C11.8457 23.8999 15.9382 29.2178 21.5607 33.4398C24.4974 35.6457 27.5431 37.3251 30.7025 38.4731C32.545 39.1419 33.3455 39.1751 34.2881 38.6249C34.686 38.3877 35.6712 37.3772 36.2207 36.6419C37.1301 35.418 37.4665 34.8535 37.5612 34.4028C37.6275 34.0945 37.5754 33.5585 37.4522 33.2169Z" fill="white"/>
<path fill-rule="evenodd" clip-rule="evenodd" d="M37.1554 22.6945C37.0948 21.0511 36.8181 19.703 36.2411 18.2001C35.6714 16.7217 35.0949 15.757 34.0062 14.4522C32.9768 13.2288 32.1773 12.5302 30.9092 11.7526C29.1401 10.6692 26.9871 9.95229 24.5743 9.65077C23.7515 9.54539 23.5654 9.55292 23.3129 9.72136C22.8237 10.0404 22.8303 10.8363 23.321 11.1506C23.4834 11.2506 23.6276 11.287 24.2858 11.3732C25.2961 11.5092 25.9458 11.6374 26.7167 11.8477C29.7397 12.6741 32.0645 14.3633 33.6186 16.8707C34.9193 18.9607 35.4592 21.0509 35.3825 23.7203C35.3558 24.6228 35.3752 24.7816 35.5132 24.9984C35.7774 25.4026 36.474 25.4825 36.8315 25.1472C37.0538 24.9428 37.0958 24.7893 37.1396 24.0169C37.1606 23.614 37.1651 23.0192 37.1554 22.6945Z" fill="white"/>
</svg>
