<svg width="36" height="36" viewBox="0 0 36 36" fill="none" xmlns="http://www.w3.org/2000/svg">
<path fill-rule="evenodd" clip-rule="evenodd" d="M18 36C27.9411 36 36 27.9411 36 18C36 8.05887 27.9411 0 18 0C8.05887 0 0 8.05887 0 18C0 27.9411 8.05887 36 18 36Z" fill="#25D366"/>
<path fill-rule="evenodd" clip-rule="evenodd" d="M18.5934 28.0141H18.5889C16.7976 28.0135 15.0374 27.564 13.4741 26.7113L7.80005 28.1997L9.31851 22.6533C8.38185 21.0301 7.88898 19.1888 7.88979 17.3024C7.89213 11.401 12.6937 6.5997 18.5933 6.5997C21.4565 6.60094 24.1439 7.7156 26.1647 9.73876C28.1855 11.7618 29.2978 14.451 29.2967 17.3108C29.2943 23.2109 24.4947 28.0117 18.5934 28.0141ZM13.737 24.7724L14.0618 24.9652C15.4277 25.7758 16.9934 26.2047 18.5898 26.2053H18.5934C23.4967 26.2053 27.4875 22.2144 27.4895 17.309C27.4904 14.9319 26.5659 12.6968 24.8863 11.0153C23.2067 9.33368 20.9731 8.40717 18.5969 8.40634C13.6898 8.40634 9.69891 12.3968 9.69696 17.3018C9.69627 18.9828 10.1666 20.6199 11.0571 22.0362L11.2687 22.3728L10.3699 25.6557L13.737 24.7724ZM23.9857 19.856C23.9189 19.7444 23.7406 19.6775 23.4732 19.5436C23.2058 19.4097 21.8909 18.7628 21.6457 18.6735C21.4006 18.5843 21.2222 18.5397 21.044 18.8073C20.8657 19.075 20.3532 19.6775 20.1972 19.856C20.0412 20.0344 19.8851 20.0568 19.6178 19.9229C19.3504 19.7891 18.4886 19.5067 17.4671 18.5955C16.672 17.8863 16.1353 17.0106 15.9793 16.7428C15.8233 16.4751 15.9627 16.3304 16.0965 16.197C16.2169 16.0772 16.364 15.8846 16.4977 15.7285C16.6314 15.5724 16.676 15.4607 16.7651 15.2824C16.8543 15.1038 16.8097 14.9477 16.7429 14.8138C16.676 14.6799 16.1411 13.3635 15.9183 12.828C15.7012 12.3065 15.4807 12.3772 15.3166 12.3689C15.1607 12.3611 14.9823 12.3595 14.804 12.3595C14.6257 12.3595 14.3359 12.4264 14.0908 12.6942C13.8457 12.9619 13.1548 13.6089 13.1548 14.9252C13.1548 16.2416 14.1131 17.5133 14.2468 17.6918C14.3805 17.8704 16.1326 20.5716 18.8155 21.7301C19.4535 22.0056 19.9517 22.1702 20.3401 22.2934C20.9808 22.497 21.5638 22.4683 22.0246 22.3994C22.5384 22.3226 23.6069 21.7525 23.8298 21.1278C24.0526 20.503 24.0526 19.9675 23.9857 19.856Z" fill="#FDFDFD"/>
</svg>
